<svg id="Layer_1" data-name="Layer 1" xmlns="http://www.w3.org/2000/svg" xmlns:xlink="http://www.w3.org/1999/xlink" width="38.78mm" height="38.78mm" viewBox="0 0 109.92 109.92"><defs><style>.cls-1,.cls-9{fill:none;}.cls-2{clip-path:url(#clip-path);}.cls-3{fill:#fff;}.cls-4{isolation:isolate;}.cls-5{fill:#f18d81;}.cls-6{clip-path:url(#clip-path-2);}.cls-7{clip-path:url(#clip-path-3);}.cls-8{fill:#eb847c;}.cls-9{stroke:#f18d81;stroke-linejoin:round;stroke-width:4px;}</style><clipPath id="clip-path"><rect class="cls-1" width="109.92" height="109.92"/></clipPath><clipPath id="clip-path-2"><rect class="cls-1" x="35" y="24" width="43" height="43"/></clipPath><clipPath id="clip-path-3"><rect class="cls-1" x="49" y="38" width="16" height="16"/></clipPath></defs><title>afleveringer</title><g id="Group_1578" data-name="Group 1578"><g class="cls-2"><g id="Component_4_2" data-name="Component 4 2"><rect id="Rectangle_1477" data-name="Rectangle 1477" class="cls-3" width="109.92" height="109.92"/></g></g><g id="Afleveringer" class="cls-4"><g class="cls-4"><path class="cls-5" d="M28.61,89,28,87.33H25.07L24.48,89h-2l3.12-8.29h2L30.72,89Zm-2.06-6.15-1,3h2.06Z"/><path class="cls-5" d="M34,82c-.56,0-.7.32-.7.77v.38h1.27v1.45H33.26V89H31.33V84.55h-.76V83.1h.76v-.35a1.93,1.93,0,0,1,2.15-2.18,5.31,5.31,0,0,1,1.26.15l-.09,1.34A2,2,0,0,0,34,82Zm1.21,7V80.72h1.92V89Z"/><path class="cls-5" d="M44.19,86.51H40a1.35,1.35,0,0,0,1.51,1.23,3.27,3.27,0,0,0,1.77-.56l.76,1a3.88,3.88,0,0,1-2.81,1,2.92,2.92,0,0,1-3.15-3.08A3,3,0,0,1,41.25,83a2.78,2.78,0,0,1,3,2.89C44.21,86.16,44.19,86.51,44.19,86.51Zm-3-2.28A1.2,1.2,0,0,0,40,85.41h2.43A1.18,1.18,0,0,0,41.21,84.23Z"/><path class="cls-5" d="M48.64,89h-1.8l-2.42-5.91h2l1.34,3.74,1.33-3.74h2Z"/><path class="cls-5" d="M57.4,86.51H53.19a1.35,1.35,0,0,0,1.51,1.23,3.27,3.27,0,0,0,1.77-.56l.76,1a3.88,3.88,0,0,1-2.81,1,2.92,2.92,0,0,1-3.15-3.08A3,3,0,0,1,54.46,83a2.78,2.78,0,0,1,3,2.89C57.42,86.16,57.4,86.51,57.4,86.51Zm-3-2.28a1.2,1.2,0,0,0-1.22,1.18h2.43A1.18,1.18,0,0,0,54.42,84.23Z"/><path class="cls-5" d="M62.2,84.85h-.08a1.57,1.57,0,0,0-.7-.14c-1,0-1.19.88-1.19,1.66V89H58.31V83.09h1.92v.84h0a1.57,1.57,0,0,1,1.47-1,1.39,1.39,0,0,1,.6.11Z"/><path class="cls-5" d="M63.94,82.4a1,1,0,0,1-1.09-1,1.09,1.09,0,0,1,2.18,0A1,1,0,0,1,63.94,82.4ZM63,89V83.09H64.9V89Z"/><path class="cls-5" d="M70.08,89V85.92c0-.78-.12-1.37-.91-1.37s-1,.67-1,1.52V89H66.2V83.09h1.92l0,.85h0a1.9,1.9,0,0,1,1.71-1c1.72,0,2.16,1.1,2.16,2.53V89Z"/><path class="cls-5" d="M78.58,90.36a3.74,3.74,0,0,1-2.72.93A5.19,5.19,0,0,1,73,90.42l.79-1.29a3.93,3.93,0,0,0,2,.67c1.14,0,1.75-.48,1.75-1.64V88h0a2.21,2.21,0,0,1-1.86.84,2.92,2.92,0,0,1,0-5.83,2.25,2.25,0,0,1,1.87.86h0l0-.75h1.92V87.8A3.24,3.24,0,0,1,78.58,90.36Zm-2.34-5.88a1.43,1.43,0,1,0,1.38,1.43A1.35,1.35,0,0,0,76.24,84.48Z"/><path class="cls-5" d="M86.56,86.51H82.35a1.35,1.35,0,0,0,1.51,1.23,3.27,3.27,0,0,0,1.77-.56l.76,1a3.88,3.88,0,0,1-2.81,1,2.92,2.92,0,0,1-3.15-3.08A3,3,0,0,1,83.62,83a2.78,2.78,0,0,1,3,2.89C86.58,86.16,86.56,86.51,86.56,86.51Zm-3-2.28a1.2,1.2,0,0,0-1.22,1.18H84.8A1.19,1.19,0,0,0,83.58,84.23Z"/><path class="cls-5" d="M91.36,84.85h-.09a1.49,1.49,0,0,0-.69-.14c-1,0-1.19.88-1.19,1.66V89H87.47V83.09h1.92v.84h0a1.57,1.57,0,0,1,1.47-1,1.39,1.39,0,0,1,.6.11Z"/></g></g><g class="cls-6"><g id="Component_5_2" data-name="Component 5 2"><g class="cls-7"><g id="Down_arrow" data-name="Down arrow"><path id="Path_10" data-name="Path 10" class="cls-8" d="M49,46l1.46,1.45L56,42V54H58V42l5.51,5.5L65,46l-8-8Z"/></g></g><g id="Rectangle_1479" data-name="Rectangle 1479"><rect class="cls-1" x="35" y="24" width="43" height="43" rx="5"/><rect class="cls-9" x="37" y="26" width="39" height="39" rx="3"/></g></g></g></g></svg>
