<svg id="Layer_1" data-name="Layer 1" xmlns="http://www.w3.org/2000/svg" width="80.76mm" height="80.41mm" viewBox="0 0 228.92 227.92"><defs><style>.cls-1{fill:#fff;}.cls-2{isolation:isolate;}.cls-3{fill:#f18d81;}</style></defs><title>aktuelt</title><g id="Group_1577" data-name="Group 1577"><rect id="Rectangle_1480" data-name="Rectangle 1480" class="cls-1" width="228.92" height="227.92"/><g id="Aktuelt_" data-name="Aktuelt " class="cls-2"><g class="cls-2"><path class="cls-3" d="M63.24,126l-2-5.56H51.44l-2,5.56H42.76l10.4-27.64h6.72L70.28,126Zm-6.88-20.52-3.44,9.92H59.8Z"/><path class="cls-3" d="M85.4,126l-4.84-7.68L78.8,120v6H72.4V98.4h6.4v14.4l6-6.52h7.36l-7.2,7.4L92.76,126Z"/><path class="cls-3" d="M101.68,111.16v7.08c0,1.72.12,2.92,2.08,2.92a6,6,0,0,0,1.92-.36l.32,5a17.32,17.32,0,0,1-4.56.64c-5.12,0-6.2-3.12-6.2-7.64v-7.64h-2.8v-4.84h2.8V101h6.44v5.36H106v4.84Z"/><path class="cls-3" d="M121.36,126l0-2.24a7.18,7.18,0,0,1-5.76,2.68c-5.44,0-7.08-3.32-7.08-8.24V106.28h6.4v11c0,2.28.64,3.84,2.92,3.84s3.32-1.8,3.32-4.4V106.28h6.4V126Z"/><path class="cls-3" d="M151,117.68H137c.28,2.84,2.44,4.12,5,4.12a11.1,11.1,0,0,0,5.92-1.88l2.52,3.32c-.64.48-3.24,3.2-9.36,3.2s-10.52-3.76-10.52-10.28,4.8-10.24,10.64-10.24,9.87,3.88,9.87,9.64C151.11,116.52,151,117.68,151,117.68Zm-9.91-7.6a4,4,0,0,0-4.08,4h8.12A4,4,0,0,0,141.12,110.08Z"/><path class="cls-3" d="M154.24,126V98.4h6.4V126Z"/><path class="cls-3" d="M172.4,111.16v7.08c0,1.72.12,2.92,2.08,2.92a6,6,0,0,0,1.92-.36l.32,5a17.32,17.32,0,0,1-4.56.64c-5.12,0-6.2-3.12-6.2-7.64v-7.64h-2.8v-4.84H166V101h6.44v5.36h4.36v4.84Z"/></g></g></g></svg>
