<svg id="Layer_1" data-name="Layer 1" xmlns="http://www.w3.org/2000/svg" xmlns:xlink="http://www.w3.org/1999/xlink" width="38.78mm" height="38.78mm" viewBox="0 0 109.92 109.92"><defs><style>.cls-1,.cls-6{fill:none;}.cls-2{clip-path:url(#clip-path);}.cls-3{fill:#fff;}.cls-4{isolation:isolate;}.cls-5{fill:#f18d81;}.cls-6{stroke:#f18d81;stroke-linejoin:round;stroke-width:3px;}</style><clipPath id="clip-path"><rect class="cls-1" width="109.92" height="109.92"/></clipPath></defs><title>chat</title><g id="Group_1575" data-name="Group 1575"><g class="cls-2"><g id="Component_4_1" data-name="Component 4 1"><rect id="Rectangle_1477-2" data-name="Rectangle 1477-2" class="cls-3" width="109.92" height="109.92"/></g></g><g id="Group_1574" data-name="Group 1574"><g id="Chat" class="cls-4"><g class="cls-4"><path class="cls-5" d="M48.85,89.14a4.27,4.27,0,1,1,0-8.54,4,4,0,0,1,2.84.94l-.6,1.61A3.11,3.11,0,0,0,49,82.28a2.55,2.55,0,0,0,0,5.1,3.09,3.09,0,0,0,2.23-.87L51.84,88A4,4,0,0,1,48.85,89.14Z"/><path class="cls-5" d="M56.53,89V85.89c0-.72-.1-1.34-.9-1.34s-1.06.67-1.06,1.55V89H52.66V80.72h1.91v2c0,.6,0,1.25,0,1.25a1.91,1.91,0,0,1,1.74-1c1.72,0,2.16,1.09,2.16,2.53V89Z"/><path class="cls-5" d="M63.14,89l0-.62a2.25,2.25,0,0,1-1.7.75,1.93,1.93,0,0,1-2.14-1.88c0-1.32,1.21-1.76,2.3-1.81l1.49-.06v-.13c0-.63-.45-1-1.21-1a3.67,3.67,0,0,0-1.81.53l-.51-1.25a5.88,5.88,0,0,1,2.53-.6c1.85,0,2.92.77,2.92,2.69V89Zm-1-2.54c-.59,0-.93.27-.93.72s.37.73.9.73a1.19,1.19,0,0,0,1-.54v-1Z"/><path class="cls-5" d="M68.39,84.55v2.12c0,.52,0,.88.62.88a1.8,1.8,0,0,0,.58-.11l.09,1.5a5,5,0,0,1-1.37.19c-1.53,0-1.86-.93-1.86-2.29V84.55h-.83V83.1h.83V81.49h1.94V83.1h1.3v1.45Z"/></g></g><g id="Rectangle_1482" data-name="Rectangle 1482"><path class="cls-1" d="M74,39h6A12,12,0,0,1,92,51V67a2,2,0,0,1-2,2H74A12,12,0,0,1,62,57V51A12,12,0,0,1,74,39Z"/><path class="cls-6" d="M74,40.5h6A10.5,10.5,0,0,1,90.5,51V67a.5.5,0,0,1-.5.5H74A10.5,10.5,0,0,1,63.5,57V51A10.5,10.5,0,0,1,74,40.5Z"/></g><g id="Rectangle_1483" data-name="Rectangle 1483"><path class="cls-1" d="M37,23h6A12,12,0,0,1,55,35v6A12,12,0,0,1,43,53H26a1,1,0,0,1-1-1V35A12,12,0,0,1,37,23Z"/><path class="cls-6" d="M37,24.5h6A10.5,10.5,0,0,1,53.5,35v6A10.5,10.5,0,0,1,43,51.5H27a.5.5,0,0,1-.5-.5V35A10.5,10.5,0,0,1,37,24.5Z"/></g></g></g></svg>
