<svg id="Layer_1" data-name="Layer 1" xmlns="http://www.w3.org/2000/svg" xmlns:xlink="http://www.w3.org/1999/xlink" width="38.78mm" height="38.78mm" viewBox="0 0 109.92 109.92"><defs><style>.cls-1{fill:none;}.cls-2{fill:#fff;}.cls-3{clip-path:url(#clip-path);}.cls-4{fill:#eb847c;}.cls-5{isolation:isolate;}.cls-6{fill:#f18d81;}</style><clipPath id="clip-path"><rect class="cls-1" x="34.78" y="24" width="40" height="40"/></clipPath></defs><title>favoritter</title><g id="Group_1571" data-name="Group 1571"><rect id="Rectangle_1475" data-name="Rectangle 1475" class="cls-2" width="109.92" height="109.92"/><g class="cls-3"><g id="Bookmark"><rect id="Rectangle_239" data-name="Rectangle 239" class="cls-1" x="34.78" y="24" width="40" height="40"/><path id="Path_110" data-name="Path 110" class="cls-4" d="M36.78,24h36V64l-18-15-18,15Z"/></g></g><g id="Favoritter" class="cls-5"><g class="cls-5"><path class="cls-6" d="M30.38,82.27v2h3.05v1.55H30.38V89H28.45V80.72h5.17v1.55Z"/><path class="cls-6" d="M38.3,89l0-.62a2.2,2.2,0,0,1-1.69.75,1.93,1.93,0,0,1-2.15-1.88c0-1.32,1.22-1.76,2.31-1.81l1.48-.06v-.13c0-.63-.44-1-1.21-1a3.7,3.7,0,0,0-1.81.53l-.5-1.25a5.84,5.84,0,0,1,2.53-.6c1.85,0,2.91.77,2.91,2.69V89Zm-1-2.54c-.59,0-.94.27-.94.72s.37.73.9.73a1.19,1.19,0,0,0,1-.54v-1Z"/><path class="cls-6" d="M44.68,89h-1.8l-2.42-5.91h2l1.35,3.74,1.33-3.74h2Z"/><path class="cls-6" d="M50.6,89.13a3.08,3.08,0,1,1,0-6.15,3.08,3.08,0,1,1,0,6.15Zm0-4.64A1.55,1.55,0,1,0,51.94,86,1.37,1.37,0,0,0,50.6,84.49Z"/><path class="cls-6" d="M58.7,84.85h-.09a1.52,1.52,0,0,0-.69-.14c-1,0-1.19.88-1.19,1.66V89H54.81V83.09h1.92v.84h0a1.57,1.57,0,0,1,1.47-1,1.32,1.32,0,0,1,.59.11Z"/><path class="cls-6" d="M60.44,82.4a1,1,0,0,1-1.09-1,1.09,1.09,0,0,1,2.18,0A1,1,0,0,1,60.44,82.4Zm-1,6.6V83.09H61.4V89Z"/><path class="cls-6" d="M64.91,84.55v2.12c0,.52,0,.88.63.88a1.7,1.7,0,0,0,.57-.11l.1,1.5a5,5,0,0,1-1.37.19c-1.53,0-1.86-.93-1.86-2.29V84.55h-.84V83.1H63V81.49h1.93V83.1h1.31v1.45Z"/><path class="cls-6" d="M69.09,84.55v2.12c0,.52,0,.88.62.88a1.8,1.8,0,0,0,.58-.11l.1,1.5a5.17,5.17,0,0,1-1.37.19c-1.54,0-1.86-.93-1.86-2.29V84.55h-.84V83.1h.84V81.49h1.93V83.1H70.4v1.45Z"/><path class="cls-6" d="M77,86.51H72.74a1.35,1.35,0,0,0,1.51,1.23A3.27,3.27,0,0,0,76,87.18l.76,1a3.88,3.88,0,0,1-2.81,1,2.93,2.93,0,0,1-3.15-3.08A3,3,0,0,1,74,83a2.78,2.78,0,0,1,3,2.89C77,86.16,77,86.51,77,86.51Zm-3-2.28a1.2,1.2,0,0,0-1.22,1.18h2.43A1.18,1.18,0,0,0,74,84.23Z"/><path class="cls-6" d="M81.75,84.85h-.09a1.52,1.52,0,0,0-.69-.14c-1,0-1.19.88-1.19,1.66V89H77.86V83.09h1.92v.84h0a1.57,1.57,0,0,1,1.47-1,1.39,1.39,0,0,1,.6.11Z"/></g></g></g></svg>
