<svg id="Layer_1" data-name="Layer 1" xmlns="http://www.w3.org/2000/svg" xmlns:xlink="http://www.w3.org/1999/xlink" width="38.78mm" height="38.78mm" viewBox="0 0 109.92 109.92"><defs><style>.cls-1{fill:none;}.cls-2{fill:#fff;}.cls-3{isolation:isolate;}.cls-4{fill:#f18d81;}.cls-5{clip-path:url(#clip-path);}.cls-6{fill:#eb847c;}.cls-7{clip-path:url(#clip-path-2);}</style><clipPath id="clip-path"><rect class="cls-1" x="30" y="38.43" width="24.57" height="24.57"/></clipPath><clipPath id="clip-path-2"><rect class="cls-1" x="56.18" y="27.75" width="24.57" height="24.57"/></clipPath></defs><title>grupper</title><g id="Group_1573" data-name="Group 1573"><rect id="Rectangle_1478" data-name="Rectangle 1478" class="cls-2" width="109.92" height="109.92"/><g id="Grupper" class="cls-3"><g class="cls-3"><path class="cls-4" d="M36.18,89.13a4.27,4.27,0,1,1,0-8.53A4.27,4.27,0,0,1,39.61,82l-1.29,1.12a2.75,2.75,0,0,0-2.12-1,2.67,2.67,0,0,0,0,5.3C37.58,87.51,38,87,38,87V85.76H36.22V84.29h3.64v3.43A4.89,4.89,0,0,1,36.18,89.13Z"/><path class="cls-4" d="M45,84.85H44.9a1.57,1.57,0,0,0-.7-.14c-.94,0-1.18.88-1.18,1.66V89H41.1V83.09H43l0,.84h0a1.56,1.56,0,0,1,1.46-1,1.34,1.34,0,0,1,.6.11Z"/><path class="cls-4" d="M49.57,89v-.67a2.17,2.17,0,0,1-1.73.8c-1.63,0-2.12-1-2.12-2.47V83.09h1.91V86.4c0,.68.2,1.15.88,1.15s1-.54,1-1.32V83.09h1.91V89Z"/><path class="cls-4" d="M56.5,89.13a2.12,2.12,0,0,1-1.87-.87v2.91H52.71V83.09h1.83l0,.75h0a2.46,2.46,0,0,1,2-.86,3.09,3.09,0,0,1,0,6.15ZM56,84.49A1.54,1.54,0,1,0,57.34,86,1.4,1.4,0,0,0,56,84.49Z"/><path class="cls-4" d="M64,89.13a2.11,2.11,0,0,1-1.87-.87v2.91H60.25V83.09h1.82v.75h0a2.47,2.47,0,0,1,2-.86,3.09,3.09,0,0,1,0,6.15Zm-.55-4.64A1.54,1.54,0,1,0,64.88,86,1.39,1.39,0,0,0,63.49,84.49Z"/><path class="cls-4" d="M73.54,86.51H69.33a1.36,1.36,0,0,0,1.51,1.23,3.34,3.34,0,0,0,1.78-.56l.75,1a3.87,3.87,0,0,1-2.8,1,2.92,2.92,0,0,1-3.16-3.08A3,3,0,0,1,70.6,83a2.79,2.79,0,0,1,3,2.89C73.57,86.16,73.54,86.51,73.54,86.51Zm-3-2.28a1.21,1.21,0,0,0-1.23,1.18h2.44A1.19,1.19,0,0,0,70.57,84.23Z"/><path class="cls-4" d="M78.34,84.85h-.08a1.57,1.57,0,0,0-.7-.14c-.94,0-1.18.88-1.18,1.66V89H74.46V83.09h1.92l0,.84h0a1.56,1.56,0,0,1,1.46-1,1.34,1.34,0,0,1,.6.11Z"/></g></g><g id="Group_1572" data-name="Group 1572"><g class="cls-5"><g id="Profile"><path id="Union_1" data-name="Union 1" class="cls-6" d="M30,63V59.93c0-3.38,5.53-6.14,12.28-6.14s12.29,2.76,12.29,6.14V63Zm6.14-18.43a6.15,6.15,0,1,1,6.14,6.14A6.14,6.14,0,0,1,36.14,44.57Z"/></g></g><g class="cls-7"><g id="Profile-2"><path id="Union_1-2" data-name="Union 1-2" class="cls-6" d="M56.18,52.32V49.25c0-3.38,5.52-6.14,12.28-6.14s12.29,2.76,12.29,6.14v3.07ZM62.32,33.9A6.14,6.14,0,1,1,68.46,40,6.14,6.14,0,0,1,62.32,33.9Z"/></g></g></g></g></svg>
