<svg id="Layer_1" data-name="Layer 1" xmlns="http://www.w3.org/2000/svg" width="44.7mm" height="11.29mm" viewBox="0 0 126.72 31.99"><defs><style>.cls-1{fill:#fff;}</style></defs><title>Artboard 2</title><g id="Artwork_2-2" data-name="Artwork 2-2"><path id="Path_115" data-name="Path 115" class="cls-1" d="M111.57,0H89.79V5.47h21.42c7.35,0,9.59,2.33,10.13,5.91h-22c-8.15,0-11.83,3.14-11.83,10.22s3.68,10.3,11.92,10.3h27.25V13.71C126.81,4.48,121.79,0,111.57,0m10,26.53H100.1c-6.72,0-7-1.53-7-4.93s.72-4.75,7.08-4.75h21.24Z"/><path id="Path_116" data-name="Path 116" class="cls-1" d="M47.67,20.34H69.45c8.16,0,11.83-3.13,11.83-10.12S77.7,0,69.36,0H57.71C43.91,0,41.94,7.71,41.94,16s2,16,15.68,16H79.94V26.62H58.07c-7.53,0-9.68-2-10.4-6.19M58.07,5.29H68.82c6.37,0,7,1.52,7,4.93s-.62,4.66-7.08,4.66H47.41c.18-6.72,1.88-9.59,10.66-9.59"/><path id="Path_117" data-name="Path 117" class="cls-1" d="M31.36,0l-26,24.82V0H0V32H5.74L18.19,20.07,32.35,32h8.51L22.14,16.31,39.16,0Z"/></g></svg>
