<svg id="Layer_1" data-name="Layer 1" xmlns="http://www.w3.org/2000/svg" xmlns:xlink="http://www.w3.org/1999/xlink" width="38.78mm" height="38.78mm" viewBox="0 0 109.92 109.92"><defs><style>.cls-1{fill:none;}.cls-2{fill:#fff;}.cls-3{clip-path:url(#clip-path);}.cls-4{fill:#eb847c;fill-rule:evenodd;}.cls-5{isolation:isolate;}.cls-6{fill:#f18d81;}</style><clipPath id="clip-path"><rect class="cls-1" x="35" y="24" width="40" height="40"/></clipPath></defs><title>mail</title><g id="Group_1570" data-name="Group 1570"><rect id="Rectangle_1476" data-name="Rectangle 1476" class="cls-2" width="109.92" height="109.92"/><g class="cls-3"><g id="Messages"><rect id="Rectangle_117" data-name="Rectangle 117" class="cls-1" x="35" y="24" width="40" height="40"/><path id="Path_50" data-name="Path 50" class="cls-4" d="M70,32H40L55,47ZM35,32c0-3.3,2.25-6,5-6H70c2.75,0,5,2.7,5,6V56c0,3.3-2.25,6-5,6H40c-2.75,0-5-2.7-5-6Z"/></g></g><g id="Mail" class="cls-5"><g class="cls-5"><path class="cls-6" d="M51.26,87l-.32-5.64h0L49.14,87H47.61l-1.79-5.64h0L45.48,87h-1.9l.62-8.28h2.45l1.72,5.45h0l1.7-5.45h2.46L53.17,87Z"/><path class="cls-6" d="M58,87l0-.62a2.25,2.25,0,0,1-1.7.75,1.93,1.93,0,0,1-2.14-1.88c0-1.32,1.21-1.76,2.3-1.81l1.49-.06v-.13c0-.63-.45-1-1.21-1a3.67,3.67,0,0,0-1.81.53l-.51-1.25a5.88,5.88,0,0,1,2.53-.6c1.85,0,2.92.77,2.92,2.69V87Zm-1-2.54c-.59,0-.93.27-.93.72s.37.73.9.73a1.19,1.19,0,0,0,1-.54v-1Z"/><path class="cls-6" d="M62,80.4a1,1,0,0,1-1.09-1,1.09,1.09,0,0,1,2.18,0A1,1,0,0,1,62,80.4ZM61,87V81.09h1.92V87Z"/><path class="cls-6" d="M64.28,87V78.72h1.91V87Z"/></g></g></g></svg>
