<svg id="Layer_1" data-name="Layer 1" xmlns="http://www.w3.org/2000/svg" xmlns:xlink="http://www.w3.org/1999/xlink" width="5.64mm" height="5.64mm" viewBox="0 0 16 16"><defs><style>.cls-1{fill:none;}.cls-2{clip-path:url(#clip-path);}.cls-3{fill:#eb847c;}</style><clipPath id="clip-path"><rect class="cls-1" width="16" height="16"/></clipPath></defs><title>mappe</title><g class="cls-2"><g id="Folder"><path id="Path_178" data-name="Path 178" class="cls-3" d="M0,12.93V3a1,1,0,0,1,.31-.72A1,1,0,0,1,1,2H6.73a.57.57,0,0,1,.41.16.66.66,0,0,1,.32.36L8,4h7a1,1,0,0,1,.73.31A.94.94,0,0,1,16,5v8a1,1,0,0,1-.31.73A1,1,0,0,1,15,14H1a1,1,0,0,1-.72-.31A1.45,1.45,0,0,1,0,12.93Z"/><rect id="Rectangle_1447" data-name="Rectangle 1447" class="cls-1" width="16" height="16"/></g></g></svg>
