<svg id="Layer_1" data-name="Layer 1" xmlns="http://www.w3.org/2000/svg" xmlns:xlink="http://www.w3.org/1999/xlink" width="38.78mm" height="38.78mm" viewBox="0 0 109.92 109.92"><defs><style>.cls-1{fill:none;}.cls-2{fill:#fff;}.cls-3{isolation:isolate;}.cls-4{fill:#f18d81;}.cls-5{clip-path:url(#clip-path);}.cls-6{fill:#eb847c;}</style><clipPath id="clip-path"><rect class="cls-1" x="34" y="27" width="42" height="42"/></clipPath></defs><title>Materialer</title><g id="Group_1566" data-name="Group 1566"><rect id="Rectangle_1469" data-name="Rectangle 1469" class="cls-2" width="109.92" height="109.92"/><g id="Materialer" class="cls-3"><g class="cls-3"><path class="cls-4" d="M34.53,87l-.32-5.64h0L32.41,87H30.87l-1.79-5.64h0L28.75,87H26.84l.63-8.28h2.44l1.73,5.45h0l1.71-5.45h2.45L36.44,87Z"/><path class="cls-4" d="M41.23,87l0-.62a2.2,2.2,0,0,1-1.69.75,1.93,1.93,0,0,1-2.15-1.88c0-1.32,1.21-1.76,2.31-1.81l1.48-.06v-.13c0-.63-.44-1-1.21-1a3.7,3.7,0,0,0-1.81.53l-.5-1.25a5.8,5.8,0,0,1,2.53-.6c1.84,0,2.91.77,2.91,2.69V87Zm-1-2.54c-.59,0-.94.27-.94.72s.37.73.9.73a1.19,1.19,0,0,0,1-.54v-1Z"/><path class="cls-4" d="M46.47,82.55v2.12c0,.52,0,.88.63.88a1.7,1.7,0,0,0,.57-.11l.1,1.5a5.09,5.09,0,0,1-1.37.19c-1.54,0-1.86-.93-1.86-2.29V82.55H43.7V81.1h.84V79.49h1.93V81.1h1.31v1.45Z"/><path class="cls-4" d="M54.33,84.51H50.12a1.35,1.35,0,0,0,1.51,1.23,3.34,3.34,0,0,0,1.78-.56l.75,1a3.87,3.87,0,0,1-2.8,1,2.93,2.93,0,0,1-3.16-3.08A3,3,0,0,1,51.39,81a2.78,2.78,0,0,1,3,2.89C54.35,84.16,54.33,84.51,54.33,84.51Zm-3-2.28a1.21,1.21,0,0,0-1.23,1.18h2.44A1.19,1.19,0,0,0,51.36,82.23Z"/><path class="cls-4" d="M59.13,82.85h-.08a1.57,1.57,0,0,0-.7-.14c-1,0-1.19.88-1.19,1.66V87H55.25V81.09h1.91v.84h0a1.55,1.55,0,0,1,1.46-1,1.34,1.34,0,0,1,.6.11Z"/><path class="cls-4" d="M60.87,80.4a1,1,0,0,1-1.09-1,1.09,1.09,0,0,1,2.18,0A1,1,0,0,1,60.87,80.4Zm-1,6.6V81.09h1.92V87Z"/><path class="cls-4" d="M66.6,87l0-.62a2.2,2.2,0,0,1-1.69.75,1.93,1.93,0,0,1-2.15-1.88c0-1.32,1.21-1.76,2.3-1.81l1.49-.06v-.13c0-.63-.44-1-1.21-1a3.67,3.67,0,0,0-1.81.53L63,81.58a5.89,5.89,0,0,1,2.54-.6c1.84,0,2.91.77,2.91,2.69V87Zm-1-2.54c-.59,0-.94.27-.94.72s.37.73.9.73a1.17,1.17,0,0,0,1-.54v-1Z"/><path class="cls-4" d="M69.67,87V78.72h1.92V87Z"/><path class="cls-4" d="M78.68,84.51H74.47A1.35,1.35,0,0,0,76,85.74a3.27,3.27,0,0,0,1.77-.56l.76,1a3.88,3.88,0,0,1-2.81,1,2.93,2.93,0,0,1-3.15-3.08A3,3,0,0,1,75.74,81a2.78,2.78,0,0,1,3,2.89C78.7,84.16,78.68,84.51,78.68,84.51Zm-3-2.28a1.2,1.2,0,0,0-1.22,1.18h2.43A1.18,1.18,0,0,0,75.7,82.23Z"/><path class="cls-4" d="M83.48,82.85h-.09a1.52,1.52,0,0,0-.69-.14c-1,0-1.19.88-1.19,1.66V87H79.59V81.09h1.92v.84h0A1.57,1.57,0,0,1,83,81a1.39,1.39,0,0,1,.6.11Z"/></g></g><g class="cls-5"><g id="Folder"><path id="Path_178" data-name="Path 178" class="cls-6" d="M34,57.68V31.58a2.69,2.69,0,0,1,.82-1.9A2.56,2.56,0,0,1,36.58,29H51.67a1.58,1.58,0,0,1,1.09.41,1.84,1.84,0,0,1,.81.95l1.36,3.8H73.28a2.72,2.72,0,0,1,1.9.82,2.46,2.46,0,0,1,.82,1.9V57.82a2.69,2.69,0,0,1-.82,1.9,2.47,2.47,0,0,1-1.9.81H36.58a2.72,2.72,0,0,1-1.9-.81A3.74,3.74,0,0,1,34,57.68Z"/><rect id="Rectangle_1447" data-name="Rectangle 1447" class="cls-1" x="34" y="27" width="42" height="42"/></g></g></g></svg>
