<svg id="Layer_1" data-name="Layer 1" xmlns="http://www.w3.org/2000/svg" xmlns:xlink="http://www.w3.org/1999/xlink" width="38.78mm" height="38.78mm" viewBox="0 0 109.92 109.92"><defs><style>.cls-1{fill:none;}.cls-2{fill:#fff;}.cls-3{clip-path:url(#clip-path);}.cls-4{fill:#eb847c;fill-rule:evenodd;}.cls-5{isolation:isolate;}.cls-6{fill:#f18d81;}</style><clipPath id="clip-path"><rect class="cls-1" x="35" y="27" width="40" height="40"/></clipPath></defs><title>notifikationer</title><g id="Group_1568" data-name="Group 1568"><rect id="Rectangle_1472" data-name="Rectangle 1472" class="cls-2" width="109.92" height="109.92"/><g class="cls-3"><g id="Alert"><rect id="Rectangle_479" data-name="Rectangle 479" class="cls-1" x="35" y="27" width="16" height="16"/><path id="Path_1" data-name="Path 1" class="cls-4" d="M72.46,62H59.92a5,5,0,1,1-10,0H37.35a2.43,2.43,0,0,1-2.26-1.75,2.66,2.66,0,0,1,.76-2.75,10.06,10.06,0,0,0,4-8V42A15,15,0,1,1,70,42v7.5a10.06,10.06,0,0,0,4,8,2.35,2.35,0,0,1,.75,2.75A2.41,2.41,0,0,1,72.46,62Z"/></g></g><g id="Notifikationer" class="cls-5"><g class="cls-5"><path class="cls-6" d="M22.64,87,19,81.39s0,1,0,1.87V87h-1.9V78.72h2.08l3.55,5.57s0-.94,0-1.81V78.72h1.9V87Z"/><path class="cls-6" d="M29,87.13A3.08,3.08,0,1,1,29,81a3.08,3.08,0,1,1,0,6.15Zm0-4.64A1.55,1.55,0,1,0,30.31,84,1.37,1.37,0,0,0,29,82.49Z"/><path class="cls-6" d="M35.4,82.55v2.12c0,.52,0,.88.63.88a1.7,1.7,0,0,0,.57-.11l.1,1.5a5.09,5.09,0,0,1-1.37.19c-1.53,0-1.86-.93-1.86-2.29V82.55h-.84V81.1h.84V79.49H35.4V81.1h1.31v1.45Z"/><path class="cls-6" d="M38.46,80.4a1,1,0,0,1-1.09-1,1.09,1.09,0,0,1,2.18,0A1,1,0,0,1,38.46,80.4Zm-1,6.6V81.09h1.92V87Z"/><path class="cls-6" d="M43.61,80c-.64,0-.71.47-.71.91v.24h1.27v1.45H42.9V87H41V82.55h-.75V81.1H41v-.32a1.93,1.93,0,0,1,2.16-2.21,5.87,5.87,0,0,1,1.26.15l-.1,1.34A2,2,0,0,0,43.61,80Zm2.13.45a1,1,0,0,1-1.09-1,1.1,1.1,0,1,1,1.09,1Zm-1,6.6V81.09H46.7V87Z"/><path class="cls-6" d="M52,87,50.5,84.7l-.53.51V87H48.05V78.72H50V83l1.8-2H54l-2.16,2.22L54.16,87Z"/><path class="cls-6" d="M58.14,87l0-.62a2.25,2.25,0,0,1-1.7.75,1.93,1.93,0,0,1-2.14-1.88c0-1.32,1.21-1.76,2.3-1.81l1.49-.06v-.13c0-.63-.45-1-1.21-1a3.63,3.63,0,0,0-1.81.53l-.51-1.25a5.88,5.88,0,0,1,2.53-.6c1.85,0,2.92.77,2.92,2.69V87Zm-1-2.54c-.59,0-.93.27-.93.72s.37.73.9.73a1.19,1.19,0,0,0,1-.54v-1Z"/><path class="cls-6" d="M63.39,82.55v2.12c0,.52,0,.88.62.88a1.7,1.7,0,0,0,.57-.11l.1,1.5a5,5,0,0,1-1.37.19c-1.53,0-1.86-.93-1.86-2.29V82.55h-.83V81.1h.83V79.49h1.94V81.1h1.3v1.45Z"/><path class="cls-6" d="M66.45,80.4a1,1,0,0,1-1.1-1,1.1,1.1,0,0,1,2.19,0A1,1,0,0,1,66.45,80.4Zm-1,6.6V81.09h1.92V87Z"/><path class="cls-6" d="M71.64,87.13a3.08,3.08,0,1,1,3.28-3.07A3,3,0,0,1,71.64,87.13Zm0-4.64A1.55,1.55,0,1,0,73,84,1.37,1.37,0,0,0,71.64,82.49Z"/><path class="cls-6" d="M79.74,87V83.92c0-.78-.12-1.37-.91-1.37s-1.06.67-1.06,1.52V87H75.85V81.09h1.92v.85h0a1.9,1.9,0,0,1,1.71-1c1.72,0,2.16,1.1,2.16,2.53V87Z"/><path class="cls-6" d="M88.68,84.51H84.47A1.35,1.35,0,0,0,86,85.74a3.34,3.34,0,0,0,1.78-.56l.75,1a3.88,3.88,0,0,1-2.81,1,2.93,2.93,0,0,1-3.15-3.08A3,3,0,0,1,85.74,81a2.78,2.78,0,0,1,3,2.89C88.7,84.16,88.68,84.51,88.68,84.51Zm-3-2.28a1.2,1.2,0,0,0-1.22,1.18h2.44A1.19,1.19,0,0,0,85.7,82.23Z"/><path class="cls-6" d="M93.48,82.85H93.4a1.57,1.57,0,0,0-.7-.14c-1,0-1.19.88-1.19,1.66V87H89.59V81.09h1.92v.84h0A1.57,1.57,0,0,1,93,81a1.39,1.39,0,0,1,.6.11Z"/></g></g></g></svg>
