<svg id="Layer_1" data-name="Layer 1" xmlns="http://www.w3.org/2000/svg" xmlns:xlink="http://www.w3.org/1999/xlink" width="38.78mm" height="38.78mm" viewBox="0 0 109.92 109.92"><defs><style>.cls-1{fill:none;}.cls-2{fill:#fff;}.cls-3{isolation:isolate;}.cls-4{fill:#f18d81;}.cls-5{clip-path:url(#clip-path);}.cls-6{fill:#eb847c;}</style><clipPath id="clip-path"><rect class="cls-1" x="35" y="27" width="40" height="40"/></clipPath></defs><title>søg</title><g id="Group_1576" data-name="Group 1576"><rect id="Rectangle_1481" data-name="Rectangle 1481" class="cls-2" width="109.92" height="109.92"/><g id="Søg" class="cls-3"><g class="cls-3"><path class="cls-4" d="M47.47,89.14a4.49,4.49,0,0,1-2.93-1.24l1-1.42a3.37,3.37,0,0,0,2.15,1c.63,0,1.11-.3,1.11-.85s-.61-.78-1-.91-1-.35-1.26-.47a3,3,0,0,1-1-.6,2,2,0,0,1-.64-1.59,2.32,2.32,0,0,1,.86-1.81,3.35,3.35,0,0,1,2.18-.66,4,4,0,0,1,2.63,1L49.74,83a2.85,2.85,0,0,0-1.85-.84c-.62,0-1.08.24-1.08.75s.47.69.84.84l1.24.46a2.35,2.35,0,0,1,1.8,2.27C50.69,88.27,49.08,89.14,47.47,89.14Z"/><path class="cls-4" d="M57.2,84.15a3.1,3.1,0,0,1,.62,1.91,3,3,0,0,1-3.28,3.07,3.71,3.71,0,0,1-1.92-.5l-.66.63-.73-.7.63-.62a3.12,3.12,0,0,1,2.68-5,3.75,3.75,0,0,1,1.9.49l.66-.64.73.71Zm-2.66.3A1.41,1.41,0,0,0,53.16,86a1.82,1.82,0,0,0,.1.59l2-2A1.25,1.25,0,0,0,54.54,84.45Zm1.3,1-2,2a1.39,1.39,0,0,0,.69.19A1.41,1.41,0,0,0,55.93,86,1.76,1.76,0,0,0,55.84,85.45Z"/><path class="cls-4" d="M64.09,90.36a3.7,3.7,0,0,1-2.72.93,5.17,5.17,0,0,1-2.87-.88l.8-1.28a3.85,3.85,0,0,0,2,.67c1.14,0,1.76-.48,1.76-1.64V88h0a2.19,2.19,0,0,1-1.86.84,2.92,2.92,0,0,1,0-5.83,2.23,2.23,0,0,1,1.87.86h0l0-.75H65V87.8A3.2,3.2,0,0,1,64.09,90.36Zm-2.34-5.88a1.43,1.43,0,1,0,1.38,1.43A1.35,1.35,0,0,0,61.75,84.48Z"/></g></g><g class="cls-5"><g id="Search"><rect id="Rectangle_176" data-name="Rectangle 176" class="cls-1" x="35" y="27" width="16" height="16"/><path id="Path_99" data-name="Path 99" class="cls-6" d="M74.9,63.39l-8.28-8.28a17.22,17.22,0,0,0,3.51-10.54A17.46,17.46,0,0,0,52.78,27h-.21A17.46,17.46,0,0,0,35,44.35v.22A17.46,17.46,0,0,0,52.35,62.13h.22a17.22,17.22,0,0,0,10.54-3.51l8.28,8.28ZM40,44.57A12.42,12.42,0,0,1,52.32,32h.25a12.41,12.41,0,0,1,12.54,12.3v.25a12.41,12.41,0,0,1-12.3,12.54h-.24A12.42,12.42,0,0,1,40,44.81Z"/></g></g></g></svg>
