<svg id="Layer_1" data-name="Layer 1" xmlns="http://www.w3.org/2000/svg" xmlns:xlink="http://www.w3.org/1999/xlink" width="38.78mm" height="38.78mm" viewBox="0 0 109.92 109.92"><defs><style>.cls-1{fill:none;}.cls-2{fill:#fff;}.cls-3{clip-path:url(#clip-path);}.cls-4{fill:#eb847c;fill-rule:evenodd;}.cls-5{isolation:isolate;}.cls-6{fill:#f18d81;}</style><clipPath id="clip-path"><rect class="cls-1" x="35" y="27" width="40" height="40"/></clipPath></defs><title>skema</title><g id="Group_1567" data-name="Group 1567"><rect id="Rectangle_1471" data-name="Rectangle 1471" class="cls-2" width="109.92" height="109.92"/><g class="cls-3"><g id="Calendar"><rect id="Rectangle_557" data-name="Rectangle 557" class="cls-1" x="35" y="27" width="16" height="16"/><path id="Path_149" data-name="Path 149" class="cls-4" d="M40,39.5V62H70V39.5ZM67.5,32h5A2.36,2.36,0,0,1,75,34.22a1.31,1.31,0,0,1,0,.28v30A2.36,2.36,0,0,1,72.78,67a1.31,1.31,0,0,1-.28,0h-35A2.36,2.36,0,0,1,35,64.78a1.31,1.31,0,0,1,0-.28v-30A2.36,2.36,0,0,1,37.22,32a1.31,1.31,0,0,1,.28,0h5V29.5A2.36,2.36,0,0,1,44.72,27,1.31,1.31,0,0,1,45,27a2.36,2.36,0,0,1,2.5,2.22,1.31,1.31,0,0,1,0,.28V32h15V29.5a2.5,2.5,0,0,1,5,0ZM65,57H60V52h5Zm-7.5,0h-5V52h5ZM65,49.5H60v-5h5Zm-7.5,0h-5v-5h5ZM50,57H45V52h5Z"/></g></g><g id="Skema" class="cls-5"><g class="cls-5"><path class="cls-6" d="M39.67,87.14a4.49,4.49,0,0,1-2.93-1.24l1-1.42a3.37,3.37,0,0,0,2.15,1c.63,0,1.11-.3,1.11-.85s-.61-.78-1-.91-1-.35-1.26-.47a3,3,0,0,1-1-.6,2,2,0,0,1-.64-1.59A2.32,2.32,0,0,1,38,79.29a3.35,3.35,0,0,1,2.18-.66,4,4,0,0,1,2.63,1L41.94,81a2.85,2.85,0,0,0-1.85-.84c-.62,0-1.08.24-1.08.75s.47.69.84.84l1.24.46a2.35,2.35,0,0,1,1.8,2.27C42.89,86.27,41.28,87.14,39.67,87.14Z"/><path class="cls-6" d="M47.75,87,46.3,84.7l-.53.51V87H43.85V78.72h1.92V83l1.8-2h2.21l-2.16,2.22L50,87Z"/><path class="cls-6" d="M56.2,84.51H52a1.35,1.35,0,0,0,1.51,1.23,3.27,3.27,0,0,0,1.77-.56l.76,1a3.88,3.88,0,0,1-2.81,1,2.93,2.93,0,0,1-3.15-3.08A3,3,0,0,1,53.26,81a2.78,2.78,0,0,1,3,2.89C56.22,84.16,56.2,84.51,56.2,84.51Zm-3-2.28A1.2,1.2,0,0,0,52,83.41h2.43A1.18,1.18,0,0,0,53.22,82.23Z"/><path class="cls-6" d="M64.44,87V83.79c0-.64-.12-1.24-.78-1.24s-1,.6-1,1.42v3H60.78V83.79c0-.74-.17-1.24-.79-1.24s-1,.6-1,1.42v3H57.11V81.09H59v.85h0a1.94,1.94,0,0,1,1.63-1,1.67,1.67,0,0,1,1.77,1.08A2,2,0,0,1,64.32,81c1.51,0,2.05,1,2.05,2.46V87Z"/><path class="cls-6" d="M71.07,87l0-.62a2.2,2.2,0,0,1-1.69.75,1.93,1.93,0,0,1-2.15-1.88c0-1.32,1.21-1.76,2.3-1.81L71,83.38v-.13c0-.63-.44-1-1.21-1a3.67,3.67,0,0,0-1.81.53l-.5-1.25A5.8,5.8,0,0,1,70,81c1.84,0,2.91.77,2.91,2.69V87Zm-1-2.54c-.59,0-.94.27-.94.72s.37.73.9.73a1.17,1.17,0,0,0,1-.54v-1Z"/></g></g></g></svg>
