<svg id="Layer_1" data-name="Layer 1" xmlns="http://www.w3.org/2000/svg" width="80.76mm" height="38.78mm" viewBox="0 0 228.92 109.92"><defs><style>.cls-1{fill:#fff;}.cls-2{isolation:isolate;}.cls-3{fill:#f18d81;}</style></defs><title>techlounge</title><g id="Group_1569" data-name="Group 1569"><rect id="Rectangle_1474" data-name="Rectangle 1474" class="cls-1" width="228.92" height="109.92"/><g id="Techlounge" class="cls-2"><g class="cls-2"><path class="cls-3" d="M68,49.76V61H64.73V49.76H61.17V47.2H71.53v2.56Z"/><path class="cls-3" d="M80.51,56.84h-7A2.27,2.27,0,0,0,76,58.9,5.55,5.55,0,0,0,79,58l1.26,1.66a6.54,6.54,0,0,1-4.68,1.6c-3,0-5.26-1.88-5.26-5.14A5,5,0,0,1,75.61,51a4.64,4.64,0,0,1,4.94,4.82C80.55,56.26,80.51,56.84,80.51,56.84Zm-5-3.8a2,2,0,0,0-2,2h4.06A2,2,0,0,0,75.55,53Z"/><path class="cls-3" d="M86.75,61.22a5.13,5.13,0,1,1,0-10.26,5.61,5.61,0,0,1,3.66,1l-.7,2.42a4.05,4.05,0,0,0-2.54-.88,2.52,2.52,0,0,0,0,5,3.9,3.9,0,0,0,2.5-1L90.51,60A5.18,5.18,0,0,1,86.75,61.22Z"/><path class="cls-3" d="M98.31,61V55.82c0-1.2-.16-2.24-1.5-2.24s-1.76,1.12-1.76,2.58V61h-3.2V47.2h3.2v3.28c0,1,0,2.08,0,2.08a3.17,3.17,0,0,1,2.9-1.6c2.86,0,3.6,1.82,3.6,4.22V61Z"/><path class="cls-3" d="M103.63,61V47.2h3.2V61Z"/><path class="cls-3" d="M113.91,61.22c-3.12,0-5.48-1.94-5.48-5.12S110.79,51,113.91,51s5.46,2,5.46,5.14S117,61.22,113.91,61.22Zm0-7.74A2.28,2.28,0,0,0,111.67,56a2.26,2.26,0,1,0,2.24-2.56Z"/><path class="cls-3" d="M127.31,61l0-1.12a3.59,3.59,0,0,1-2.88,1.34c-2.72,0-3.54-1.66-3.54-4.12v-6h3.2v5.52c0,1.14.32,1.92,1.46,1.92s1.66-.9,1.66-2.2V51.14h3.2V61Z"/><path class="cls-3" d="M139,61V55.86c0-1.3-.2-2.28-1.52-2.28s-1.76,1.12-1.76,2.54V61h-3.2V51.14h3.2l0,1.42h0a3.2,3.2,0,0,1,2.86-1.6c2.86,0,3.6,1.84,3.6,4.22V61Z"/><path class="cls-3" d="M153.15,63.26a6.15,6.15,0,0,1-4.54,1.56,8.62,8.62,0,0,1-4.78-1.46l1.32-2.14a6.61,6.61,0,0,0,3.4,1.12c1.9,0,2.92-.8,2.92-2.74v-.32h0a3.68,3.68,0,0,1-3.1,1.4,4.56,4.56,0,0,1-4.66-4.86A4.56,4.56,0,0,1,148.33,51a3.71,3.71,0,0,1,3.12,1.44h0l0-1.26h3.2V59A5.34,5.34,0,0,1,153.15,63.26Zm-3.9-9.8a2.39,2.39,0,1,0,2.3,2.38A2.25,2.25,0,0,0,149.25,53.46Z"/><path class="cls-3" d="M166.45,56.84h-7A2.27,2.27,0,0,0,162,58.9a5.55,5.55,0,0,0,3-.94l1.26,1.66a6.54,6.54,0,0,1-4.68,1.6c-3,0-5.26-1.88-5.26-5.14A5,5,0,0,1,161.55,51a4.64,4.64,0,0,1,4.94,4.82C166.49,56.26,166.45,56.84,166.45,56.84Zm-5-3.8a2,2,0,0,0-2,2h4.06A2,2,0,0,0,161.49,53Z"/></g></g></g></svg>
