<svg id="Layer_1" data-name="Layer 1" xmlns="http://www.w3.org/2000/svg" xmlns:xlink="http://www.w3.org/1999/xlink" width="7.06mm" height="7.06mm" viewBox="0 0 20 20"><defs><style>.cls-1{fill:none;}.cls-2{clip-path:url(#clip-path);}.cls-3{fill:#eb847c;}</style><clipPath id="clip-path"><rect class="cls-1" width="20" height="20"/></clipPath></defs><title>vedlagt_ikon</title><g class="cls-2"><g id="Attachment"><rect id="Rectangle_314" data-name="Rectangle 314" class="cls-1" width="20" height="20"/><path id="Path_125" data-name="Path 125" class="cls-3" d="M7,20a6.31,6.31,0,0,1-4.67-2A6.52,6.52,0,0,1,.5,10.5a5.76,5.76,0,0,1,1.17-2L5,5.17A4,4,0,0,1,8,4a4.54,4.54,0,0,1,3.17,1.33A4.28,4.28,0,0,1,12.5,8.67a4,4,0,0,1-1.17,3L9.5,13.33a1.29,1.29,0,0,1-.83.34,1.79,1.79,0,0,1-1-.34,2.34,2.34,0,0,1-.34-1,2.43,2.43,0,0,1,.34-1L9.5,9.5a1,1,0,0,0,.5-1A2,2,0,0,0,9.33,7a1.92,1.92,0,0,0-1.16-.33A2.4,2.4,0,0,0,7,7L3.5,10.33A4.56,4.56,0,0,0,2.67,13,4.88,4.88,0,0,0,4,16.17a3.54,3.54,0,0,0,1.67,1,2.85,2.85,0,0,0,1.66.16A13.15,13.15,0,0,0,8.67,17a3.51,3.51,0,0,0,1-.67l6.66-6.66A3.64,3.64,0,0,0,17.5,6.83,4.37,4.37,0,0,0,16,3.67a7.21,7.21,0,0,0-2-1H12.5a3.37,3.37,0,0,0-1.17.5,2.13,2.13,0,0,1-1,.16,1.1,1.1,0,0,1-.83-.66c-.17-.17-.17-.5-.17-1A3,3,0,0,1,10,.83,6.59,6.59,0,0,1,13.33,0a6.19,6.19,0,0,1,4.34,1.67,7.07,7.07,0,0,1,2.33,5,6.52,6.52,0,0,1-1.83,4.83L11.5,18.17A6.17,6.17,0,0,1,7,20Z"/></g></g></svg>
